<svg xmlns="http://www.w3.org/2000/svg" width="285" height="30" fill="none" xmlns:v="https://vecta.io/nano"><path d="M11.74 3.8c2.232 0 4.164.372 5.796 1.116 1.656.744 2.928 1.8 3.816 3.168s1.332 2.988 1.332 4.86c0 1.848-.444 3.468-1.332 4.86-.888 1.368-2.16 2.424-3.816 3.168-1.632.72-3.564 1.08-5.796 1.08H6.664V29H.832V3.8H11.74zm-.324 13.5c1.752 0 3.084-.372 3.996-1.116.912-.768 1.368-1.848 1.368-3.24 0-1.416-.456-2.496-1.368-3.24-.912-.768-2.244-1.152-3.996-1.152H6.664V17.3h4.752zm32.676-7.668V29h-5.364v-2.232c-1.392 1.68-3.408 2.52-6.048 2.52-1.824 0-3.48-.408-4.968-1.224-1.464-.816-2.616-1.98-3.456-3.492s-1.26-3.264-1.26-5.256.42-3.744 1.26-5.256 1.992-2.676 3.456-3.492c1.488-.816 3.144-1.224 4.968-1.224 2.472 0 4.404.78 5.796 2.34V9.632h5.616zM33.652 24.68c1.416 0 2.592-.48 3.528-1.44.936-.984 1.404-2.292 1.404-3.924s-.468-2.928-1.404-3.888c-.936-.984-2.112-1.476-3.528-1.476-1.44 0-2.628.492-3.564 1.476-.936.96-1.404 2.256-1.404 3.888s.468 2.94 1.404 3.924c.936.96 2.124 1.44 3.564 1.44zm25.323 3.384c-.552.408-1.236.72-2.052.936a10.51 10.51 0 0 1-2.484.288c-2.328 0-4.116-.588-5.364-1.764s-1.872-2.904-1.872-5.184V5.348h5.616v4.716h4.788v4.32H52.82v7.884c0 .816.204 1.452.612 1.908.408.432.996.648 1.764.648.864 0 1.632-.24 2.304-.72l1.476 3.96zm6.556-15.876c.672-.936 1.572-1.644 2.7-2.124 1.152-.48 2.472-.72 3.96-.72v5.184l-1.26-.072c-1.608 0-2.868.456-3.78 1.368-.912.888-1.368 2.232-1.368 4.032V29h-5.616V9.632h5.364v2.556zm8.019-2.556h5.616V29h-5.616V9.632zm2.808-2.7c-1.032 0-1.872-.3-2.52-.9s-.972-1.344-.972-2.232.324-1.632.972-2.232 1.488-.9 2.52-.9 1.872.288 2.52.864a2.77 2.77 0 0 1 .972 2.16c0 .936-.324 1.716-.972 2.34-.648.6-1.488.9-2.52.9zm15.4 22.356c-2.064 0-3.924-.42-5.58-1.26-1.632-.864-2.916-2.052-3.852-3.564-.912-1.512-1.368-3.228-1.368-5.148s.456-3.636 1.368-5.148c.936-1.512 2.22-2.688 3.852-3.528 1.656-.864 3.516-1.296 5.58-1.296 2.04 0 3.816.432 5.328 1.296 1.536.84 2.652 2.052 3.348 3.636l-4.356 2.34c-1.008-1.776-2.46-2.664-4.356-2.664-1.464 0-2.676.48-3.636 1.44s-1.44 2.268-1.44 3.924.48 2.964 1.44 3.924 2.172 1.44 3.636 1.44c1.92 0 3.372-.888 4.356-2.664l4.356 2.376c-.696 1.536-1.812 2.736-3.348 3.6-1.512.864-3.288 1.296-5.328 1.296zm18.105-7.884l-2.7 2.664V29h-5.616V2.288h5.616v15.12l8.208-7.776h6.696l-8.064 8.208L122.788 29h-6.804l-6.12-7.596zM142.853 3.8c2.232 0 4.164.372 5.796 1.116 1.656.744 2.928 1.8 3.816 3.168s1.332 2.988 1.332 4.86c0 1.848-.444 3.468-1.332 4.86-.888 1.368-2.16 2.424-3.816 3.168-1.632.72-3.564 1.08-5.796 1.08h-5.076V29h-5.832V3.8h10.908zm-.324 13.5c1.752 0 3.084-.372 3.996-1.116.912-.768 1.368-1.848 1.368-3.24 0-1.416-.456-2.496-1.368-3.24-.912-.768-2.244-1.152-3.996-1.152h-4.752V17.3h4.752zm13.056-7.668h5.616V29h-5.616V9.632zm2.808-2.7c-1.032 0-1.872-.3-2.52-.9s-.972-1.344-.972-2.232.324-1.632.972-2.232 1.488-.9 2.52-.9 1.872.288 2.52.864a2.77 2.77 0 0 1 .972 2.16c0 .936-.324 1.716-.972 2.34-.648.6-1.488.9-2.52.9zm12.556 22.356a19.37 19.37 0 0 1-4.716-.576c-1.536-.408-2.76-.912-3.672-1.512l1.872-4.032c.864.552 1.908 1.008 3.132 1.368 1.224.336 2.424.504 3.6.504 2.376 0 3.564-.588 3.564-1.764 0-.552-.324-.948-.972-1.188s-1.644-.444-2.988-.612c-1.584-.24-2.892-.516-3.924-.828s-1.932-.864-2.7-1.656c-.744-.792-1.116-1.92-1.116-3.384 0-1.224.348-2.304 1.044-3.24.72-.96 1.752-1.704 3.096-2.232 1.368-.528 2.976-.792 4.824-.792 1.368 0 2.724.156 4.068.468 1.368.288 2.496.696 3.384 1.224l-1.872 3.996c-1.704-.96-3.564-1.44-5.58-1.44-1.2 0-2.1.168-2.7.504s-.9.768-.9 1.296c0 .6.324 1.02.972 1.26s1.68.468 3.096.684c1.584.264 2.88.552 3.888.864 1.008.288 1.884.828 2.628 1.62s1.116 1.896 1.116 3.312c0 1.2-.36 2.268-1.08 3.204s-1.776 1.668-3.168 2.196c-1.368.504-3 .756-4.896.756zm17.145 0a19.37 19.37 0 0 1-4.716-.576c-1.536-.408-2.76-.912-3.672-1.512l1.872-4.032c.864.552 1.908 1.008 3.132 1.368 1.224.336 2.424.504 3.6.504 2.376 0 3.564-.588 3.564-1.764 0-.552-.324-.948-.972-1.188s-1.644-.444-2.988-.612c-1.584-.24-2.892-.516-3.924-.828s-1.932-.864-2.7-1.656c-.744-.792-1.116-1.92-1.116-3.384 0-1.224.348-2.304 1.044-3.24.72-.96 1.752-1.704 3.096-2.232 1.368-.528 2.976-.792 4.824-.792 1.368 0 2.724.156 4.068.468 1.368.288 2.496.696 3.384 1.224l-1.872 3.996c-1.704-.96-3.564-1.44-5.58-1.44-1.2 0-2.1.168-2.7.504s-.9.768-.9 1.296c0 .6.324 1.02.972 1.26s1.68.468 3.096.684c1.584.264 2.88.552 3.888.864 1.008.288 1.884.828 2.628 1.62s1.116 1.896 1.116 3.312c0 1.2-.36 2.268-1.08 3.204s-1.776 1.668-3.168 2.196c-1.368.504-3 .756-4.896.756zm30.141-19.656V29h-5.328v-2.304c-.744.84-1.632 1.488-2.664 1.944-1.032.432-2.148.648-3.348.648-2.544 0-4.56-.732-6.048-2.196s-2.232-3.636-2.232-6.516V9.632h5.616v10.116c0 3.12 1.308 4.68 3.924 4.68 1.344 0 2.424-.432 3.24-1.296.816-.888 1.224-2.196 1.224-3.924V9.632h5.616zm8.587 2.556c.672-.936 1.572-1.644 2.7-2.124 1.152-.48 2.472-.72 3.96-.72v5.184l-1.26-.072c-1.608 0-2.868.456-3.78 1.368-.912.888-1.368 2.232-1.368 4.032V29h-5.616V9.632h5.364v2.556zm19.791-2.844c2.4 0 4.332.72 5.796 2.16 1.488 1.44 2.232 3.576 2.232 6.408V29h-5.616V18.776c0-1.536-.336-2.676-1.008-3.42-.672-.768-1.644-1.152-2.916-1.152-1.416 0-2.544.444-3.384 1.332-.84.864-1.26 2.16-1.26 3.888V29h-5.616V9.632h5.364V11.9c.744-.816 1.668-1.44 2.772-1.872 1.104-.456 2.316-.684 3.636-.684zm20.565 19.944c-2.04 0-3.876-.42-5.508-1.26-1.608-.864-2.868-2.052-3.78-3.564s-1.368-3.228-1.368-5.148.456-3.636 1.368-5.148 2.172-2.688 3.78-3.528c1.632-.864 3.468-1.296 5.508-1.296s3.864.432 5.472 1.296c1.608.84 2.868 2.016 3.78 3.528s1.368 3.228 1.368 5.148-.456 3.636-1.368 5.148-2.172 2.7-3.78 3.564c-1.608.84-3.432 1.26-5.472 1.26zm0-4.608c1.44 0 2.616-.48 3.528-1.44.936-.984 1.404-2.292 1.404-3.924s-.468-2.928-1.404-3.888c-.912-.984-2.088-1.476-3.528-1.476s-2.628.492-3.564 1.476c-.936.96-1.404 2.256-1.404 3.888s.468 2.94 1.404 3.924c.936.96 2.124 1.44 3.564 1.44zm14.272 4.608c-.984 0-1.812-.336-2.484-1.008s-1.008-1.512-1.008-2.52c0-1.032.336-1.86 1.008-2.484.672-.648 1.5-.972 2.484-.972s1.812.324 2.484.972c.672.624 1.008 1.452 1.008 2.484 0 1.008-.336 1.848-1.008 2.52s-1.5 1.008-2.484 1.008z" fill="#000"/></svg>