<svg xmlns="http://www.w3.org/2000/svg" width="168" height="39" fill="none" xmlns:v="https://vecta.io/nano"><path d="M2.653 1.408v28.5H.445v-28.5h2.208zm-.501 17.219l-.983-.557c.074-1.187.315-2.301.724-3.34s.959-1.954 1.651-2.746c.705-.792 1.528-1.41 2.468-1.856.952-.445 2.004-.668 3.154-.668 1.002 0 1.899.136 2.69.408s1.466.705 2.022 1.299.977 1.355 1.262 2.282c.297.928.445 2.06.445 3.396v13.063h-2.226V16.827c0-1.385-.192-2.468-.575-3.247-.383-.792-.928-1.354-1.633-1.688s-1.54-.501-2.505-.501c-1.064 0-1.998.235-2.802.705-.792.458-1.46 1.058-2.004 1.8a8.73 8.73 0 0 0-1.225 2.356c-.284.829-.439 1.62-.464 2.375zm17.924 1.559v-.612c0-1.46.21-2.808.631-4.045s1.02-2.307 1.8-3.21c.792-.903 1.738-1.602 2.839-2.097 1.101-.507 2.325-.761 3.674-.761 1.361 0 2.592.254 3.692.761 1.101.495 2.047 1.194 2.839 2.097s1.398 1.973 1.818 3.21.631 2.585.631 4.045v.612c0 1.46-.21 2.808-.631 4.045-.421 1.225-1.027 2.288-1.818 3.191-.779.903-1.719 1.608-2.82 2.115-1.101.495-2.326.742-3.674.742-1.361 0-2.591-.247-3.692-.742-1.101-.507-2.047-1.212-2.839-2.115s-1.398-1.967-1.818-3.191c-.421-1.237-.631-2.585-.631-4.045zm2.208-.612v.612c0 1.101.148 2.146.445 3.136.297.977.73 1.849 1.299 2.616a6.13 6.13 0 0 0 2.115 1.781c.841.433 1.812.649 2.913.649 1.088 0 2.047-.216 2.876-.649a6.13 6.13 0 0 0 2.115-1.781 8.19 8.19 0 0 0 1.28-2.616c.297-.99.445-2.035.445-3.136v-.612c0-1.088-.148-2.121-.445-3.099-.285-.977-.717-1.849-1.299-2.616-.569-.767-1.274-1.373-2.115-1.818s-1.806-.668-2.895-.668-2.053.223-2.895.668c-.829.445-1.534 1.052-2.115 1.818-.569.767-1.002 1.639-1.299 2.616-.284.977-.427 2.01-.427 3.099zm22.414-5.585v15.92h-2.227V9.832h2.134l.093 4.156zm-.408 4.639l-1.076-.557c.074-1.187.297-2.301.668-3.34.383-1.039.915-1.954 1.596-2.746a7.23 7.23 0 0 1 2.449-1.856c.952-.445 2.035-.668 3.247-.668.977 0 1.862.136 2.653.408.804.26 1.484.674 2.041 1.243.569.557 1.008 1.287 1.317 2.19s.464 1.985.464 3.247v13.359h-2.208V16.623c0-1.336-.21-2.381-.631-3.136-.408-.755-.983-1.293-1.726-1.614-.73-.322-1.577-.482-2.542-.482-1.138 0-2.103.235-2.895.705a5.79 5.79 0 0 0-1.911 1.8 8.3 8.3 0 0 0-1.076 2.356c-.235.829-.359 1.62-.371 2.375zm13.341-1.744l-1.484.037c.062-.977.285-1.911.668-2.802.396-.891.934-1.682 1.614-2.375.68-.705 1.491-1.262 2.431-1.67.953-.408 2.022-.612 3.21-.612 1.039 0 1.967.142 2.783.427.817.272 1.503.711 2.06 1.317.569.594 1.002 1.354 1.299 2.282s.445 2.041.445 3.34v13.081h-2.227v-13.1c0-1.422-.21-2.523-.631-3.303-.408-.792-.977-1.342-1.707-1.651s-1.583-.464-2.56-.464c-.965.012-1.812.192-2.542.538a5.46 5.46 0 0 0-1.837 1.336 6.22 6.22 0 0 0-1.113 1.763c-.247.631-.384 1.249-.408 1.855zm24.622 11.022l6.253-18.072h2.394l-8.498 23.305c-.173.458-.396.965-.668 1.522-.26.557-.606 1.088-1.039 1.596-.421.52-.952.94-1.596 1.262-.631.334-1.404.501-2.319.501a5.76 5.76 0 0 1-.909-.093c-.359-.05-.618-.099-.779-.148l-.019-1.874a3.76 3.76 0 0 0 .594.093l.538.037c.804 0 1.478-.136 2.022-.408.557-.272 1.02-.68 1.392-1.225.371-.532.699-1.2.983-2.004l1.651-4.49zM76.408 9.832l6.401 17.237.594 2.319-1.614.909-7.793-20.466h2.412zm21.245 20.076h-4.379l3.748-22.006c.173-1.41.594-2.635 1.262-3.674.668-1.051 1.546-1.862 2.635-2.431s2.362-.847 3.822-.835a12.16 12.16 0 0 1 1.336.111l1.317.241-.427 3.488-.834-.148-.835-.074c-.706 0-1.33.136-1.874.408a3.58 3.58 0 0 0-1.318 1.15c-.334.482-.556 1.07-.668 1.763l-3.785 22.006zm7.496-20.076l-.594 3.266H93.2l.594-3.266h11.355zm.538 10.372l.056-.427a13.76 13.76 0 0 1 1.02-3.952c.532-1.249 1.237-2.356 2.116-3.321.89-.977 1.935-1.738 3.135-2.282 1.213-.544 2.561-.798 4.045-.761 1.435.025 2.666.322 3.693.891 1.039.569 1.88 1.33 2.523 2.282.656.94 1.113 2.016 1.373 3.228.26 1.2.328 2.455.204 3.767l-.037.427c-.161 1.385-.513 2.697-1.057 3.934a11.58 11.58 0 0 1-2.134 3.303 9.53 9.53 0 0 1-3.136 2.245c-1.2.532-2.536.779-4.008.742-1.422-.025-2.653-.315-3.692-.872a7.41 7.41 0 0 1-2.524-2.264 9 9 0 0 1-1.354-3.191c-.26-1.2-.334-2.449-.223-3.748zm4.398-.427l-.037.427c-.062.68-.068 1.398-.019 2.152a7.31 7.31 0 0 0 .445 2.115c.248.656.631 1.194 1.151 1.614s1.212.643 2.078.668c.915.025 1.713-.161 2.393-.557a5.24 5.24 0 0 0 1.707-1.596c.458-.668.823-1.398 1.095-2.19.272-.804.452-1.589.538-2.356l.037-.427c.075-.668.087-1.379.037-2.134a7.53 7.53 0 0 0-.445-2.152c-.247-.68-.631-1.231-1.15-1.651-.52-.433-1.212-.662-2.078-.687-.928-.025-1.732.167-2.412.575a5.18 5.18 0 0 0-1.708 1.614c-.457.68-.822 1.423-1.094 2.227-.26.804-.439 1.59-.538 2.356zm16.532.427l.056-.427a13.76 13.76 0 0 1 1.02-3.952c.532-1.249 1.237-2.356 2.115-3.321.891-.977 1.936-1.738 3.136-2.282 1.212-.544 2.561-.798 4.045-.761 1.435.025 2.666.322 3.692.891a7.12 7.12 0 0 1 2.524 2.282c.655.94 1.113 2.016 1.373 3.228.26 1.2.328 2.455.204 3.767l-.037.427c-.161 1.385-.514 2.697-1.058 3.934a11.56 11.56 0 0 1-2.134 3.303c-.878.952-1.923 1.701-3.135 2.245-1.2.532-2.536.779-4.008.742-1.423-.025-2.653-.315-3.693-.872-1.026-.569-1.867-1.323-2.523-2.264-.643-.94-1.095-2.004-1.354-3.191-.26-1.2-.334-2.449-.223-3.748zm4.397-.427l-.037.427c-.062.68-.068 1.398-.018 2.152a7.31 7.31 0 0 0 .445 2.115c.247.656.631 1.194 1.15 1.614s1.213.643 2.079.668c.915.025 1.713-.161 2.393-.557a5.26 5.26 0 0 0 1.707-1.596c.458-.668.823-1.398 1.095-2.19a11.34 11.34 0 0 0 .538-2.356l.037-.427a12.11 12.11 0 0 0 .037-2.134c-.049-.767-.198-1.484-.445-2.152-.248-.68-.631-1.231-1.151-1.651-.519-.433-1.212-.662-2.078-.687-.927-.025-1.731.167-2.412.575-.68.396-1.249.934-1.707 1.614s-.822 1.423-1.095 2.227c-.259.804-.439 1.59-.538 2.356zm28.259 5.715l4.175-24.084h4.397l-4.954 28.5h-3.933l.315-4.416zm-11.726-5.251l.037-.39c.161-1.237.451-2.474.872-3.711.433-1.237 1.014-2.369 1.744-3.395a8.52 8.52 0 0 1 2.709-2.449c1.076-.606 2.338-.891 3.785-.854 1.262.037 2.313.365 3.154.983s1.497 1.416 1.967 2.393c.483.977.81 2.035.984 3.173.173 1.126.228 2.227.167 3.303l-.149 1.262c-.198 1.138-.532 2.288-1.002 3.451s-1.082 2.227-1.837 3.191c-.742.965-1.633 1.732-2.672 2.301-1.026.569-2.201.835-3.525.798-1.324-.049-2.418-.383-3.284-1.002-.866-.631-1.534-1.441-2.004-2.431-.47-1.002-.773-2.078-.909-3.229-.136-1.163-.149-2.295-.037-3.396zm4.453-.427l-.037.39c-.075.643-.106 1.33-.093 2.06s.111 1.429.297 2.097c.198.656.525 1.2.983 1.633.47.433 1.126.668 1.967.705.977.037 1.843-.186 2.598-.668.766-.482 1.404-1.113 1.911-1.893s.866-1.608 1.076-2.486l.519-3.395c.037-.619-.006-1.231-.129-1.837-.112-.606-.316-1.157-.613-1.651a3.58 3.58 0 0 0-1.187-1.206c-.483-.322-1.07-.489-1.763-.501-.915-.037-1.707.149-2.375.557-.656.408-1.2.952-1.633 1.633-.42.68-.754 1.422-1.002 2.227s-.42 1.583-.519 2.338z" fill="#fff"/></svg>