<svg xmlns="http://www.w3.org/2000/svg" width="135" height="51" fill="#fff" xmlns:v="https://vecta.io/nano"><path d="M17.401 49.965c-.325-.133-.652-.697-.847-1.294a10.11 10.11 0 0 1-.416-1.948l-.182-1.889-.03-.419-.073-1.541-.058-1.249-.131-3.44-.03-.869-.103-4.372v-.186l-.028-3.682.014-1.394.014-1.378-.014-.93a1.16 1.16 0 0 0-.058-.246l-.236.863-.321 1.162c-.111.473-.252.939-.423 1.394l-.175.522-.992 2.961c-.293.775-.639 1.664-1.307 2.243-.487.423-1.007.581-1.536.503-.833-.118-1.725-.86-2.198-1.479a11.13 11.13 0 0 1-1.686-3.043l-.161-.421a4.64 4.64 0 0 1-.336-.992c-.002-.019-.008-.037-.018-.052s-.024-.029-.04-.038a.27.27 0 0 0-.073-.023h-.015c-.028 0-.046 0-.051.014a.14.14 0 0 0-.007.051v.07c-.058.262-.104.917-.138 1.962l-.052 3.602.139 5.763c.061 1.192.076 2.477.489 3.625a1.66 1.66 0 0 1 .236.754c0 .411-.255.668-.766.734s-1.229-.151-2.154-.672l-.818-.518a5.68 5.68 0 0 1-1.241-1.168 3.66 3.66 0 0 1-.709-1.457 43.04 43.04 0 0 1-.664-5.467L0 29.657l.227-8.946.444-7.718v-.074a5.07 5.07 0 0 1 .08-.683 2.62 2.62 0 0 1 .285-.756c.549-.922 1.203-1.779 1.95-2.556.709-.747 1.484-1.523 2.445-2.006.438-.22.827-.307 1.182-.258.175.026.272.153.292.382l.702 5.282 1.277 8.079c.287 1.627.489 3.512 1.277 5.011 1.199-2.579 1.891-5.394 2.54-8.133.871-3.653 1.582-7.37 2.16-11.099.093-1.162.496-2.358 1.234-3.203.632-.724 1.418-1.448 2.46-1.64.654-.123 1.332-.021 1.919.289.638.324 1.199.929 1.686 1.797a1.65 1.65 0 0 1 .204.828l-.028.329c-.404 3.841-.726 7.697-.912 11.544-.18 3.686-.269 7.404-.271 11.097l.118 8.463.314 8.665v.101a42.37 42.37 0 0 1 .058 2.058c0 .95-.1 1.723-.299 2.318a1.8 1.8 0 0 1-.452.748 1.85 1.85 0 0 1-.754.454c-.878.292-2.1.199-2.736-.063zm26.655-.508c-.662.142-1.206-.013-1.634-.465-1.096-1.239-1.35-3.057-1.621-4.611l-.355-2.853-.555-4.053-.236-1.524c-.165-1.44-.307-2.196-.424-2.261-1.027-.246-2.048-.465-3.109-.425-.716.028-1.43.093-2.139.195a20.97 20.97 0 0 1-2.387.224c-.062-.003-.125.012-.178.044s-.095.079-.121.136a1.38 1.38 0 0 0-.11.418l-.03.132-.306 1.517-.204 1.013-.482 2.663-.861 4.404c-.4 1.825-.751 3.8-1.599 5.493a2.69 2.69 0 0 1-.995 1.082 2.75 2.75 0 0 1-1.425.407l-.262.006c-.217-.01-.428-.071-.616-.178a1.35 1.35 0 0 1-.464-.436c-.29-.448-.482-.95-.562-1.476a9.88 9.88 0 0 1-.168-1.951c.019-1.178.197-2.39.365-3.565l1.27-6.971.554-2.614.395-1.901.262-1.248.762-3.405.393-1.777.905-3.736.354-1.407 1.919-7.71 2.212-7.516a13.88 13.88 0 0 1 .839-2.184c.266-.574.657-1.083 1.146-1.492.448-.355.993-.495 1.635-.418l.671.106c.935.122 1.57.581 1.869 1.341.497 1.261.7 2.658.933 4l.453 2.378 2.643 14.196 2.363 12.402.945 6.412.118.961a18.76 18.76 0 0 1 .175 1.544l.029.374a8.28 8.28 0 0 1 .073 1.101 5.44 5.44 0 0 1-.044.687 5.66 5.66 0 0 1-.248 1.132 2.28 2.28 0 0 1-.541.842 3.35 3.35 0 0 1-1.255.864l-.356.101zm-6.539-22.996c.118 0 .175-.071.175-.214l-.015-.232-1.08-6.971-.409-1.975a36.37 36.37 0 0 1-.321-1.547c-.525 1.298-.86 2.656-1.167 4.006l-.978 4.791-.292 1.524c-.025.078-.039.159-.044.241 0 .116.07.173.204.174l3.825.211.103-.008zm13.955 20.114a2.63 2.63 0 0 1-1.723-.07c-.347-.145-.591-.512-.716-1.104-1.005-5.028-.905-10.327-.905-15.413a219.37 219.37 0 0 1 .27-10.977c.15-2.985.331-6.02.788-8.964.177-1.137.253-3.137 1.263-3.944 1.654-.519 3.338-.697 5.006-.17a10.92 10.92 0 0 1 .935.336c3.295 1.301 6.034 3.94 7.693 6.92 1.133 2.034 2.024 4.256 2.044 6.638.014 1.768-.552 3.449-1.256 5.063-1.457 2.961-3.946 5.423-7.007 6.78l-.102.044a.83.83 0 0 0-.337.202c.087.13.091.378.132.581.223 1.124 1.807 2.475 2.743 3.485.963 1.039 1.953 2.124 3.08 3.013.681.54 1.022 1.096 1.022 1.706a2.01 2.01 0 0 1-.409 1.194 4.42 4.42 0 0 1-.985.992c-.331.254-.701.453-1.098.588-.37.116-.657.109-.861-.023l-.627-.398c-.471-.306-.911-.657-1.314-1.046-.347-.331-.709-.659-1.063-.982a18.69 18.69 0 0 1-1.51-1.687c-.488-.605-.874-1.114-1.11-1.482-.19-.296-.399-.59-.613-.88-.103-.135-.195-.276-.278-.424a1.79 1.79 0 0 0-.526-.664c.02.421.03.867.03 1.338v.29a23.33 23.33 0 0 0 .094 2.051 4.33 4.33 0 0 0 .519 1.788 1.5 1.5 0 0 1 .19.783c0 .49-.146 1.046-.438 1.664a6.26 6.26 0 0 1-1.204 1.718 3.76 3.76 0 0 1-1.73 1.054zm3.051-18.196a7.53 7.53 0 0 0 3.868-1.255 9.77 9.77 0 0 0 2.883-2.945c.757-1.206 1.13-2.528 1.365-4.008a7.57 7.57 0 0 0 .044-.767c.015-1.6-.512-3.216-1.3-4.611-1.3-2.338-3.533-4.122-6.16-4.756-.145-.035-.22.014-.22.145a3.28 3.28 0 0 1-.102.728c-.461 2.006-.27 4.487-.336 6.679-.102 3.449-.226 6.916-.473 10.369 0 .193.032.313.096.359a.54.54 0 0 0 .333.062zM79.135 38.95c-.79.256-1.6.443-2.423.56-1.781.25-3.838.088-5.336-.97s-2.616-2.719-3.182-4.435a20.85 20.85 0 0 1-1.063-6.548c-.01-2.396.367-4.778 1.117-7.058.662-1.955 1.723-3.869 3.328-5.316 1.517-1.369 3.503-1.816 5.511-1.931.977 0 1.933.232 2.846.49l1.182.393c2.208.845 4.348 1.844 6.233 3.253 1.397 1.046 2.794 2.343 3.606 3.834.678 1.248 1.216 2.614 1.167 4.046-.05 1.51-.473 2.86-1.138 4.244-.774 1.595-2.043 2.99-3.308 4.243-1.522 1.51-3.366 2.766-5.277 3.807a25.59 25.59 0 0 1-3.262 1.387zm.102-2.72c1.208-.321 2.363-.946 3.299-1.621 1.219-.883 2.271-2.369 2.855-3.857s.952-3.106.945-4.698a13.09 13.09 0 0 0-.57-3.732 11.05 11.05 0 0 0-1.693-3.342 7.74 7.74 0 0 0-2.788-2.335 6.78 6.78 0 0 0-.76-.232c-.896-.21-1.707-.2-2.437.071-.763.295-1.429.79-1.927 1.43-.621.762-1.063 1.667-1.394 2.542a17.19 17.19 0 0 0-.846 3.324c-.189 1.21-.285 2.431-.285 3.655 0 2.274.325 4.763 1.387 6.836.794 1.556 2.455 2.427 4.215 1.96zm18.992-1.94c-.789.1-1.431.101-1.927-.014s-.846-.367-.992-.734c-.354-.9-.443-1.99-.533-2.974l-.227-4.783.154-3.406a11.04 11.04 0 0 1 .51-2.663c.236-.697.558-1.092.957-1.201l.496-.127.481-.127c.162-.041.329-.059.496-.053l1.654.03a4.44 4.44 0 0 1 .584.019 2.08 2.08 0 0 1 .889.254 3.26 3.26 0 0 1 .607.497c.034.03.055.071.059.116l-.03.087c-.27 1.098-.346 2.252-.438 3.369l-.237 5.365a23.6 23.6 0 0 0 .175 3.11c.118.854.322 1.27.614 1.251l7.153-.2a4.71 4.71 0 0 1 .709.073 2.55 2.55 0 0 1 .62.199c.354.182.526.379.526.581-.001.074-.021.146-.059.209-.156.287-.55.447-1.182.497-.233.016-.468.02-.702.011a76.41 76.41 0 0 0-5.137.085l-5.22.529zm34.333 6.676c-.629-.371-1.183-.852-1.635-1.42-.812-1.014-1.309-2.267-1.62-3.507l-.354-1.689a24.71 24.71 0 0 0-.554-2.323l-.237-.851c-.165-.783-.306-1.191-.423-1.244-1.026-.288-2.05-.552-3.11-.666l-2.138-.171-2.387-.15a.48.48 0 0 0-.299.042c-.051.036-.089.088-.11.146l-.028.047-.307.533-.205.349-.482.912a11.43 11.43 0 0 1-.86 1.45c-.575.87-1.107 1.402-1.599 1.64s-1.299.267-2.43.146l-.264-.029a3.16 3.16 0 0 1-1.079-.302c-.234-.115-.429-.293-.563-.514-.112-.193-.17-.411-.168-.633.01-.253.143-.636.365-1.121a14.06 14.06 0 0 1 1.271-2.185l.555-.831.393-.61.263-.404.759-1.119.395-.598.905-1.292.355-.5 1.92-2.916 2.21-3.284a8.85 8.85 0 0 1 .84-1.116c.342-.381.726-.723 1.147-1.018a7.5 7.5 0 0 1 1.634-.861l.672-.26c.933-.385 1.557-.498 1.868-.28s.623.733.935 1.574l.452 1.046c1.02 2.376 1.836 4.842 2.642 7.295l2.363 8.122a47.72 47.72 0 0 1 .945 4.839l.119.749.176 1.214.028.288c.047.279.072.561.073.843a2.34 2.34 0 0 1-.043.465 1.45 1.45 0 0 1-.249.617c-.107.131-.287.186-.54.165a3.23 3.23 0 0 1-1.256-.388l-.345-.2zm-6.539-14.72c.118 0 .174-.033.174-.1 0-.045-.008-.067-.014-.116a17.63 17.63 0 0 0-1.08-3.162l-.409-.83-.321-.63c-.456.588-.848 1.221-1.168 1.89l-.978 2.044-.29.625c-.024.027-.039.061-.044.097 0 .046.069.07.204.07l3.824.116.102-.003z"/></svg>