<svg xmlns="http://www.w3.org/2000/svg" width="186" height="32" fill="none" xmlns:v="https://vecta.io/nano"><path d="M.739.318h9.706c2.085 0 3.803.291 5.152.874 1.38.583 2.469 1.319 3.266 2.208.828.889 1.395 1.886 1.702 2.99.337 1.104.506 2.177.506 3.22 0 1.533-.261 2.883-.782 4.048s-1.242 2.147-2.162 2.944c-.92.767-2.024 1.349-3.312 1.748-1.257.399-2.637.598-4.14.598H5.109V31H.739V.318zm9.89 14.858c1.901 0 3.358-.475 4.37-1.426 1.043-.981 1.564-2.331 1.564-4.048 0-1.748-.537-3.113-1.61-4.094-1.043-1.012-2.484-1.518-4.324-1.518h-5.52v11.086h5.52zm14.53-14.03h4.646v4.646h-4.646V1.146zm.276 8.464h4.14V31h-4.14V9.61zm28.597 18.446c-.951 1.073-2.131 1.947-3.542 2.622-1.38.644-2.99.966-4.83.966-1.717 0-3.281-.276-4.692-.828-1.38-.583-2.561-1.365-3.542-2.346-.951-1.012-1.687-2.208-2.208-3.588-.521-1.411-.782-2.944-.782-4.6 0-1.564.276-3.036.828-4.416s1.319-2.576 2.3-3.588c1.012-1.043 2.193-1.855 3.542-2.438 1.38-.613 2.898-.92 4.554-.92 1.809 0 3.404.322 4.784.966a10.78 10.78 0 0 1 3.542 2.622l-2.714 2.622a7.01 7.01 0 0 0-2.346-1.886c-.92-.46-2.009-.69-3.266-.69-1.104 0-2.101.215-2.99.644a6.29 6.29 0 0 0-2.208 1.702c-.583.705-1.043 1.533-1.38 2.484-.307.92-.46 1.886-.46 2.898 0 .981.153 1.947.46 2.898.337.92.797 1.748 1.38 2.484a7.1 7.1 0 0 0 2.208 1.702c.889.429 1.886.644 2.99.644 1.257 0 2.377-.23 3.358-.69 1.012-.491 1.84-1.135 2.484-1.932l2.53 2.668zM58.778.318h9.706c2.085 0 3.803.291 5.152.874 1.38.583 2.469 1.319 3.266 2.208.828.889 1.395 1.886 1.702 2.99.337 1.104.506 2.177.506 3.22 0 1.533-.261 2.883-.782 4.048s-1.242 2.147-2.162 2.944c-.92.767-2.024 1.349-3.312 1.748-1.257.399-2.637.598-4.14.598h-5.566V31h-4.37V.318zm9.89 14.858c1.901 0 3.358-.475 4.37-1.426 1.043-.981 1.564-2.331 1.564-4.048 0-1.748-.537-3.113-1.61-4.094-1.043-1.012-2.484-1.518-4.324-1.518h-5.52v11.086h5.52zm14.622-1.196v-2.3l-.046-2.07h3.956l.138 3.45c.245-.368.567-.767.966-1.196.399-.46.874-.874 1.426-1.242.583-.368 1.242-.675 1.978-.92.767-.276 1.641-.414 2.622-.414a7.6 7.6 0 0 1 1.242.092c.399.061.767.153 1.104.276l-.92 3.864c-.552-.215-1.257-.322-2.116-.322-.889 0-1.717.169-2.484.506-.736.337-1.38.813-1.932 1.426-.552.583-.997 1.273-1.334 2.07-.307.797-.46 1.641-.46 2.53V31h-4.14V13.98zm25.892 17.664c-1.656 0-3.174-.291-4.554-.874-1.38-.613-2.576-1.441-3.588-2.484-.981-1.043-1.763-2.239-2.346-3.588-.552-1.38-.828-2.852-.828-4.416s.276-3.021.828-4.37c.583-1.38 1.365-2.591 2.346-3.634a10.79 10.79 0 0 1 3.588-2.438c1.38-.613 2.898-.92 4.554-.92 1.626 0 3.128.307 4.508.92a10.79 10.79 0 0 1 3.588 2.438 11.06 11.06 0 0 1 2.346 3.634c.583 1.349.874 2.806.874 4.37s-.291 3.036-.874 4.416c-.552 1.349-1.334 2.545-2.346 3.588s-2.208 1.871-3.588 2.484c-1.38.583-2.882.874-4.508.874zm0-3.588c1.104 0 2.101-.215 2.99-.644.89-.46 1.641-1.043 2.254-1.748.614-.736 1.074-1.564 1.38-2.484.338-.951.506-1.917.506-2.898a8.08 8.08 0 0 0-.506-2.806c-.306-.951-.782-1.794-1.426-2.53-.613-.736-1.364-1.319-2.254-1.748-.858-.46-1.84-.69-2.944-.69s-2.1.23-2.99.69c-.889.429-1.64 1.012-2.254 1.748-.613.705-1.088 1.533-1.426 2.484a8.98 8.98 0 0 0-.46 2.852 8.98 8.98 0 0 0 .46 2.852c.338.92.813 1.748 1.426 2.484.644.736 1.396 1.334 2.254 1.794.89.429 1.886.644 2.99.644zm16.021-13.8v-2.438l-.046-2.208h3.956l.138 3.22a9.66 9.66 0 0 1 .966-1.196 7.02 7.02 0 0 1 1.426-1.242c.552-.368 1.196-.675 1.932-.92.766-.245 1.64-.368 2.622-.368 1.656 0 3.02.337 4.094 1.012 1.104.644 1.962 1.595 2.576 2.852.858-1.012 1.901-1.901 3.128-2.668 1.257-.797 2.806-1.196 4.646-1.196 2.76 0 4.799.828 6.118 2.484 1.318 1.625 1.978 3.818 1.978 6.578V31h-4.14V18.488c0-1.993-.399-3.45-1.196-4.37-.767-.951-1.902-1.426-3.404-1.426-.859 0-1.656.184-2.392.552-.706.337-1.334.797-1.886 1.38-.522.583-.936 1.273-1.242 2.07-.276.767-.414 1.579-.414 2.438V31h-4.14V18.488c0-1.993-.399-3.45-1.196-4.37-.767-.951-1.886-1.426-3.358-1.426-1.135 0-2.086.245-2.852.736a5.97 5.97 0 0 0-1.886 1.932c-.46.767-.798 1.656-1.012 2.668a16.94 16.94 0 0 0-.276 3.036V31h-4.14V14.256zm49.386 17.388c-1.656 0-3.174-.291-4.554-.874-1.38-.613-2.576-1.441-3.588-2.484-.982-1.043-1.764-2.239-2.346-3.588-.552-1.38-.828-2.852-.828-4.416s.276-3.021.828-4.37c.582-1.38 1.364-2.591 2.346-3.634a10.79 10.79 0 0 1 3.588-2.438c1.38-.613 2.898-.92 4.554-.92 1.625 0 3.128.307 4.508.92a10.79 10.79 0 0 1 3.588 2.438 11.06 11.06 0 0 1 2.346 3.634c.582 1.349.874 2.806.874 4.37s-.292 3.036-.874 4.416c-.552 1.349-1.334 2.545-2.346 3.588s-2.208 1.871-3.588 2.484c-1.38.583-2.883.874-4.508.874zm0-3.588c1.104 0 2.1-.215 2.99-.644a7.55 7.55 0 0 0 2.254-1.748 7.61 7.61 0 0 0 1.38-2.484c.337-.951.506-1.917.506-2.898a8.1 8.1 0 0 0-.506-2.806 7.12 7.12 0 0 0-1.426-2.53c-.614-.736-1.365-1.319-2.254-1.748-.859-.46-1.84-.69-2.944-.69s-2.101.23-2.99.69c-.89.429-1.641 1.012-2.254 1.748-.614.705-1.089 1.533-1.426 2.484a8.95 8.95 0 0 0-.46 2.852 8.95 8.95 0 0 0 .46 2.852c.337.92.812 1.748 1.426 2.484.644.736 1.395 1.334 2.254 1.794.889.429 1.886.644 2.99.644z" fill="#fff"/></svg>