<svg xmlns="http://www.w3.org/2000/svg" xmlns:xlink="http://www.w3.org/1999/xlink" width="208" height="34" fill="none" xmlns:v="https://vecta.io/nano"><path d="M175.652 17.314h-.055-2.417-.201-.201-.147v.171.47 1.453h.495.146l.146.043 1.904.748 1.941-2.265-1.575-.598-.036-.021zm-12.119 13.017v.192l-.037.15-.659 2.48h15.451l1.794-2.095h-14.773-.934l.275-1.047.659-2.48.018-.043v-.043V2.8v-.043l-.018-.043-.55-2.073-1.922 2.244.659 2.48.037.171v.171 24.624zm16.22-23.982h-.037-6.609-.329-.128-.019v.235.385 1.475h4.595.165l.146.043 1.978.791 1.94-2.265-1.648-.641-.054-.021zm-35.222 24.709l-.202-.235-4.65-5.429-.201-.235v-.342V6.69l-1.794 2.095v18.938l4.65 5.429h10.727l1.795-2.095h-10.051-.274zm7.633-7.396l.074-.085 1.061-1.24.074-.085v-.128-5.109-.086l-.019-.064-1.098-2.544-1.959 2.287 1.19 2.8.11.235v.257 3.762h.458.109zm3.241-17.078h-.055-4.723-2.106-.128l-.073.085-1.062 1.239-.091.107v.128.513h.97 4.741.147l.146.064 3.241 1.261 1.922-2.265-2.893-1.133h-.036zm-31.652 1.859h.457l.293.406 1.794 2.565.22.299v.406.812l1.739-2.458.055-.107v-.107-1.026-.128l-.055-.086-1.812-2.565-.074-.107h-.128-3.972-.403-.147v.171.47 1.454h2.033zm-10.289 22.615l.275-1.047.659-2.48.018-.043v-.043V2.8v-.043l-.018-.043-.549-2.073-1.941 2.244.677 2.48.037.171v.171 24.624.192l-.037.15-.677 2.48h7.341l1.794-2.095h-6.645-.934zm14.627 0l-.146-.556-2.746-9.598-.055-.192-.11-.406h-.531-.22-2.013-.403-.147v.171.47V22.4h.074.238 1.043l.256.983.055.171 2.728 9.597h6.957l1.775-2.095h-6.242-.513zm-26.416-10.132v-.128V2.8v-.043-.043l-.568-2.073-1.922 2.244.659 2.48.055.171v.171 17.314l1.702-2.009.074-.085zM92.43 31.058l-.201-.235-4.577-5.344-.256-.321.073-.406.311-1.817v-.021-.043V2.8v-.043l-.018-.043-.549-2.073-1.922 2.244.659 2.48.037.171v.171 20.071.107l-.018.107-.311 1.817 4.595 5.344h10.911l1.794-2.095H92.723h-.293zM71.286 19.879h.421l.293.385 1.611 2.095.238.321v.428 1.026h.037l.073-.107 1.611-2.116.073-.085v-.128-1.475-.128l-.073-.085-1.611-2.116-.073-.107h-.128-3.789-.201-.183-.147v.171.47 1.454h1.849zM60.338 30.331v.192l-.055.15-.659 2.48h16.092l1.776-2.095H62.114h-.934l.275-1.047.659-2.48.018-.043v-.043V2.8v-.043l-.018-.043-.549-2.073-1.94 2.244.659 2.48.055.171v.171 24.624zM71.469 7.973h.494l.275.449 1.227 1.881.183.299v.385.107h.311.128l.092-.128 1.208-1.881.055-.085v-.107-.812-.107l-.055-.086-1.208-1.881-.092-.128h-.128-3.991-.384-.147v.171.47 1.454h2.032zm127.432-1.517l-.073-.107h-.128-3.991-.403-.128v.171.47 1.454h2.032.458l.293.406 1.794 2.565.219.299v.406.812l1.74-2.458.055-.107v-.107-1.026-.128l-.055-.086-1.813-2.565zm-12.997 24.602l.292-1.047.66-2.48.018-.043v-.043V2.8v-.043l-.018-.043-.55-2.073-1.94 2.244.659 2.48.055.171v.171 24.624.192l-.055.15-.659 2.48h7.341l1.794-2.095h-6.645-.952zm14.645 0l-.147-.556-2.746-9.598-.055-.192-.109-.406h-.531-.22-2.032-.403-.128v.171.47V22.4h.073.238 1.026l.274.983.037.171 2.746 9.597h6.938l1.794-2.095h-6.243-.512zM46.718 6.584h-.055-3.204-.275v.321 1.752h1.007.165l.147.064 2.581 1.026 1.941-2.265-2.27-.898h-.037zM34.343 31.058l.311-1.047 1.025-3.612.018-.043v-.064V6.904v-.321h-.293H32.2h-.037-.037L29.528 7.61l-1.318.513.439-1.539 1.52-5.322-1.373 1.625-1.977 6.861 2.599-1.026.147-.064h.165 3.204.97V9.79v19.409.171l-.055.192-1.025 3.591h8.275l1.794-2.095h-7.597-.952zM19.881 6.584h-.037-3.204-.275v.321 1.752h.988.165l.146.064 2.599 1.026 1.941-2.265-2.27-.898h-.055zM8.476 31.058h-.952l.293-1.047 1.025-3.612.018-.043v-.064V6.904v-.321h-.275-3.204-.055-.037l-2.6 1.026-1.3.513.439-1.539L3.35 1.261 1.958 2.886 0 9.747l2.581-1.026.165-.064h.146 3.204.97V9.79v19.409.171l-.037.192-1.043 3.591h8.275l1.794-2.095H8.476zm14.81 2.053c.355-.001.706-.084 1.033-.246a2.69 2.69 0 0 0 .871-.695l.989-1.154c-.145.026-.292.04-.439.043-.888-.001-1.74-.413-2.368-1.146s-.981-1.728-.982-2.765a4.62 4.62 0 0 1 .037-.513l-.989 1.154c-.379.43-.639.982-.748 1.585a3.58 3.58 0 0 0 .138 1.803c.199.572.539 1.061.977 1.406a2.39 2.39 0 0 0 1.482.529zm26.819 0c.355-.001.706-.084 1.033-.246a2.69 2.69 0 0 0 .87-.695l.989-1.154c-.145.026-.292.04-.439.043-.888-.001-1.74-.413-2.368-1.146s-.981-1.728-.982-2.765a4.62 4.62 0 0 1 .037-.513l-.989 1.154c-.379.43-.639.982-.748 1.585a3.58 3.58 0 0 0 .138 1.803c.199.572.539 1.061.977 1.406a2.39 2.39 0 0 0 1.482.529z" fill="#a68653"/><g fill="#fff"><path d="M166.023 2.629V2.8v24.646.171l-.055.171-.659 2.479h15.45l2.014-7.097-2.636 1.026-.146.043h-.165-6.462-.385-1.043v-1.197-.47-2.907-1.71-.47-.983h.842.201.201 2.417.165l.146.064 1.904.748v-5.729l-1.904.748-.146.064h-.165-2.417-.402-.842v-.983-.47V8.7 6.968v-.385-1.047h.714.128.329 6.609.165l.146.064 1.959.791L180.174 0h-14.865l.659 2.458.055.171zm-10.49 27.638l4.595-5.365-.311-1.796-.019-.107v-.128-6.776-.257l.092-.257.805-1.86h-7.926l1.208 2.779.091.235v.278 5.109.47l-.274.321-1.062 1.24-.275.321h-.402-2.417-1.117-.402l-.293-.321-1.062-1.261-.275-.321v-.47V8.914v-.77-.47l.275-.321 1.062-1.261.293-.321h.402 2.106 4.723.165l.146.064 3.222 1.24L156.869 0h-11.661l-5.034 5.878v18.938l4.631 5.451h10.728zm-33.813 0l-.659-2.479-.036-.171v-.171-7.952h4.522l.256.983.055.171 2.746 9.598h6.938l-1.483-2.992-.036-.085-.037-.085-2.691-8.529-.22-.684.44-.513 3.203-3.741V5.429L130.068 0H114.38l.659 2.48.036.171v24.988l-.036.171-.659 2.479h7.34v-.021zm-.695-16.309v-.983-.466V5.54h5.675l.293.406 1.794 2.565.22.321v1.838l-.22.321-1.794 2.565-.293.406-5.675-.004zm-32.549 8.914V23l-.018.107-.311 1.796 4.577 5.365h10.929l4.576-5.365-.311-1.796L107.9 23v-.128V2.8v-.171l.055-.171.659-2.458h-6.938l.659 2.458.036.171V2.8v17.998.449l-.274.342-2.197 2.565-.275.321h-.403-1.483-.403l-.275-.321-2.197-2.565-.275-.342v-.449V2.8v-.171l.037-.171.66-2.458h-7.524l.659 2.458.055.171V2.8v20.071zM62.81 2.629v24.988l-.037.171-.659 2.479h16.073l4.247-4.98V18.02l-2.947-3.463-.677-.791.677-.791 2.563-2.993v-5.45L78.187.021H62.114l.659 2.48.037.128zm5.931 9.256v-.983-.47-5.365h5.693l.293.449 1.208 1.881.201.299v1.56l-.201.299-1.208 1.881-.293.449h-5.693zm0 13.06v-1.197-.47-6.306h5.474l.293.385 1.611 2.095.238.321v2.351l-.238.321-1.611 2.095-.293.385h-4.43l-1.043.021zm-25.172 5.322l-1.025-3.612-.055-.171v-.192V8.914v-.257-1.753-1.133h.97 3.204.165l.146.064 2.599 1.005L47.615 0H31.267l-1.959 6.84 2.6-1.005.146-.064h.146 3.204.97v1.133 19.387.192l-.037.171-1.043 3.612h8.275zM2.471 6.84l2.6-1.005.146-.064h.165 3.204.97v1.133 19.387.192l-.055.171-1.025 3.612h8.275l-1.025-3.612-.055-.171v-.192V6.904 5.771h.97 3.204.165l.146.064 2.581 1.005L20.778 0H4.448L2.471 6.84z"/><use xlink:href="#B"/><path d="M208 30.268l-1.483-2.993-.037-.085-.036-.085-2.691-8.529-.22-.684.439-.513 3.204-3.741V5.455l-4.65-5.429h-15.689l.659 2.48.037.171v24.988l-.037.171-.659 2.48h7.341l-.659-2.48-.036-.171v-.171-7.994h4.521l.257.983.054.171 2.746 9.598H208v.017zm-8.842-16.309h-5.675v-.983-.466-6.968h5.675l.292.406 1.795 2.565.219.321v1.838l-.219.321-1.795 2.565-.292.402z"/><use xlink:href="#B" x="-26.819"/></g><defs ><path id="B" d="M49.885 27.147c.004.612.162 1.209.456 1.716s.71.901 1.195 1.132a2.3 2.3 0 0 0 1.532.168c.514-.122.985-.419 1.354-.853s.62-.987.721-1.587.047-1.223-.154-1.788-.542-1.048-.978-1.387-.949-.521-1.473-.521a2.33 2.33 0 0 0-1.02.238 2.67 2.67 0 0 0-.863.677c-.247.29-.442.634-.574 1.013a3.56 3.56 0 0 0-.197 1.193z"/></defs></svg>